<?xml version="1.0" encoding="iso-8859-1"?>
<!-- Generator: Adobe Illustrator 19.0.0, SVG Export Plug-In . SVG Version: 6.00 Build 0)  -->
<svg fill="currentColor" version="1.1" id="Capa_1" xmlns="http://www.w3.org/2000/svg" xmlns:xlink="http://www.w3.org/1999/xlink" x="0px" y="0px"
	 viewBox="0 0 512 512" style="enable-background:new 0 0 512 512;" xml:space="preserve">
<g>
	<g>
		<path d="M256,0C114.848,0,0,114.848,0,256s114.848,256,256,256s256-114.848,256-256S397.152,0,256,0z M351.68,128.32
			c35.296,0,64,28.704,64,64c0,8.832-7.168,16-16,16c-8.832,0-16-7.168-16-16c0-17.632-14.336-32-32-32s-32,14.368-32,32
			c0,8.832-7.168,16-16,16c-8.832,0-16-7.168-16-16C287.68,157.024,316.384,128.32,351.68,128.32z M159.68,128.32
			c35.296,0,64,28.704,64,64c0,8.832-7.168,16-16,16c-8.832,0-16-7.168-16-16c0-17.632-14.368-32-32-32s-32,14.368-32,32
			c0,8.832-7.168,16-16,16c-8.832,0-16-7.168-16-16C95.68,157.024,124.384,128.32,159.68,128.32z M255.68,448.32
			c-85.6,0-161.536-57.44-184.672-139.648c-1.376-4.832-0.416-9.984,2.624-13.984c3.008-4,7.744-6.368,12.768-6.368h338.56
			c4.992,0,9.728,2.336,12.736,6.336s4,9.152,2.656,14.016C417.184,390.88,341.248,448.32,255.68,448.32z"/>
	</g>
</g>
<g>
</g>
<g>
</g>
<g>
</g>
<g>
</g>
<g>
</g>
<g>
</g>
<g>
</g>
<g>
</g>
<g>
</g>
<g>
</g>
<g>
</g>
<g>
</g>
<g>
</g>
<g>
</g>
<g>
</g>
</svg>
